<svg width="396" height="52" viewBox="0 0 396 52" fill="none" xmlns="http://www.w3.org/2000/svg">
<rect width="396" height="52" fill="#232323"/>
<path fill-rule="evenodd" clip-rule="evenodd" d="M375.939 24.9393C376.221 24.658 376.602 24.5 377 24.5C377.398 24.5 377.779 24.658 378.061 24.9393C378.342 25.2206 378.5 25.6022 378.5 26C378.5 26.3978 378.342 26.7794 378.061 27.0607C377.779 27.342 377.398 27.5 377 27.5C376.602 27.5 376.221 27.342 375.939 27.0607C375.658 26.7794 375.5 26.3978 375.5 26C375.5 25.6022 375.658 25.2206 375.939 24.9393Z" fill="white"/>
<path fill-rule="evenodd" clip-rule="evenodd" d="M375.939 30.1893C376.221 29.908 376.602 29.75 377 29.75C377.398 29.75 377.779 29.908 378.061 30.1893C378.342 30.4706 378.5 30.8522 378.5 31.25C378.5 31.6478 378.342 32.0294 378.061 32.3107C377.779 32.592 377.398 32.75 377 32.75C376.602 32.75 376.221 32.592 375.939 32.3107C375.658 32.0294 375.5 31.6478 375.5 31.25C375.5 30.8522 375.658 30.4706 375.939 30.1893Z" fill="white"/>
<path fill-rule="evenodd" clip-rule="evenodd" d="M375.939 19.6893C376.221 19.408 376.602 19.25 377 19.25C377.398 19.25 377.779 19.408 378.061 19.6893C378.342 19.9706 378.5 20.3522 378.5 20.75C378.5 21.1478 378.342 21.5294 378.061 21.8107C377.779 22.092 377.398 22.25 377 22.25C376.602 22.25 376.221 22.092 375.939 21.8107C375.658 21.5294 375.5 21.1478 375.5 20.75C375.5 20.3522 375.658 19.9706 375.939 19.6893Z" fill="white"/>
<path d="M17.3299 16C16.5941 16 16 16.5941 16 17.3299V36H32.548C33.1073 36 33.6452 35.7779 34.0412 35.3819L35.3819 34.0412C35.7779 33.6452 36 33.1073 36 32.548V16H17.3299ZM29.0586 18.5716L22.5534 25.0768C22.3928 25.2374 22.1734 25.3283 21.9459 25.3283C21.6141 25.3283 21.3091 25.1357 21.1672 24.836L18.6465 19.5082C18.4405 19.072 18.7589 18.5716 19.2406 18.5716H29.0586ZM18.5716 33.4284V27.0998C18.5716 26.7626 18.8445 26.4897 19.1817 26.4897H25.5103L18.5716 33.4284ZM26.0348 25.3283H23.9395L30.244 19.0238C30.533 18.7348 30.9264 18.5716 31.3358 18.5716H33.4311L27.1266 24.8761C26.8376 25.1651 26.4442 25.3283 26.0348 25.3283Z" fill="#00F58C"/>
<path d="M49.4904 32V20.984H56.2458V22.361H51.0294V25.6982H55.857V27.0752H51.0294V32H49.4904ZM62.7627 32V30.6392C62.3091 31.6112 61.5963 32.1944 60.3489 32.1944C58.8261 32.1944 57.6759 31.3682 57.6759 29.246V23.738H59.1339V29.084C59.1339 30.2666 59.5227 31.028 60.7539 31.028C61.9851 31.028 62.7627 30.0074 62.7627 28.5656V23.738H64.2207V32H62.7627ZM69.6431 32.1944C67.2617 32.1944 66.0791 30.3962 66.0791 27.869C66.0791 25.3418 67.3751 23.5436 69.6431 23.5436C72.0083 23.5436 73.1747 25.2932 73.1747 27.4964V28.274H67.6181V29.1488C67.6181 30.3476 68.6225 31.028 69.6593 31.028C70.6961 31.028 71.5547 30.5096 71.6519 29.3756H73.1099C72.9641 31.1414 71.4089 32.1944 69.6431 32.1944ZM71.6681 27.1076V26.654C71.6681 25.439 70.7285 24.71 69.6431 24.71C68.5577 24.71 67.6181 25.439 67.6181 26.654V27.1076H71.6681ZM76.513 32H75.055V20.984H76.513V32ZM84.6354 32L81.7842 20.984H83.4204L85.575 30.2666H85.6398L87.7944 20.984H89.5116L91.6662 30.2666H91.731L93.8856 20.984H95.5218L92.6706 32H90.7428L88.6854 23.1386H88.6206L86.5632 32H84.6354ZM98.6801 32.1944C97.8701 32.1944 97.1735 31.9352 96.7037 31.4492C96.2825 31.0118 96.0233 30.38 96.0233 29.732C96.0233 28.436 96.8495 27.3992 98.4857 27.2534L101.175 27.0104V26.3462C101.175 25.0664 100.478 24.71 99.4577 24.71C98.4371 24.71 97.7567 25.1474 97.7567 26.2004H96.2987C96.2987 24.6452 97.7081 23.5436 99.4739 23.5436C101.256 23.5436 102.6 24.4184 102.6 26.3624V30.7526H103.832V32H101.369L101.337 30.4772H101.272C100.818 31.6436 99.9113 32.1944 98.6801 32.1944ZM99.0527 31.028C100.365 31.028 101.175 29.9912 101.175 28.5008V28.1282L98.2427 28.4036C97.6433 28.4522 97.5623 28.7276 97.5623 29.1974V29.9264C97.5623 30.6878 98.1293 31.028 99.0527 31.028ZM106.49 32H105.032V20.984H106.49V32ZM110.235 32H108.777V20.984H110.235V32ZM115.649 32.1944C113.267 32.1944 112.085 30.3962 112.085 27.869C112.085 25.3418 113.381 23.5436 115.649 23.5436C118.014 23.5436 119.18 25.2932 119.18 27.4964V28.274H113.624V29.1488C113.624 30.3476 114.628 31.028 115.665 31.028C116.702 31.028 117.56 30.5096 117.658 29.3756H119.116C118.97 31.1414 117.415 32.1944 115.649 32.1944ZM117.674 27.1076V26.654C117.674 25.439 116.734 24.71 115.649 24.71C114.563 24.71 113.624 25.439 113.624 26.654V27.1076H117.674ZM121.549 32V24.9854H120.156V23.738H121.549V20.984H122.991V23.738H124.886V24.9854H122.991V30.7526H124.886V32H121.549Z" fill="white"/>
</svg>
