<svg width="397" height="119" viewBox="0 0 397 119" fill="none" xmlns="http://www.w3.org/2000/svg">
<rect x="1" width="396" height="119" fill="#232323"/>
<path d="M0 19H372.19C376.504 19 380 22.4964 380 26.8095V48H0V19Z" fill="#3E3E3E"/>
<rect y="48" width="380" height="53" fill="#EDEDED"/>
<path d="M1 61H273C280.732 61 287 67.268 287 75C287 82.732 280.732 89 273 89H1V61Z" fill="white"/>
<path fill-rule="evenodd" clip-rule="evenodd" d="M269.496 68.6263C269.734 68.6263 269.951 68.7613 270.056 68.9747L271.839 72.588L275.827 73.1658C276.062 73.2 276.258 73.365 276.331 73.5913C276.405 73.8177 276.343 74.0662 276.173 74.2322L273.284 77.0447L273.965 81.0162C274.005 81.2508 273.909 81.4879 273.716 81.6277C273.523 81.7675 273.268 81.7858 273.057 81.6748L269.5 79.8L265.933 81.6751C265.723 81.7858 265.468 81.7674 265.275 81.6275C265.083 81.4877 264.986 81.2507 265.027 81.0162L265.708 77.0447L262.818 74.2322C262.648 74.0662 262.586 73.8177 262.66 73.5913C262.733 73.365 262.929 73.2 263.165 73.1658L267.152 72.588L268.935 68.9747C269.04 68.7613 269.258 68.6263 269.496 68.6263ZM269.496 70.6635L268.127 73.436C268.036 73.6205 267.86 73.7484 267.657 73.7779L264.599 74.221L266.815 76.3784C266.963 76.522 267.03 76.729 266.995 76.9319L266.473 79.9793L269.209 78.5406C269.391 78.4447 269.609 78.4448 269.791 78.5408L272.518 79.9778L271.996 76.9319C271.961 76.729 272.028 76.522 272.176 76.3784L274.392 74.221L271.335 73.7779C271.131 73.7484 270.955 73.6205 270.864 73.436L269.496 70.6635Z" fill="#A0A0A0"/>
<path fill-rule="evenodd" clip-rule="evenodd" d="M303.572 69.7619C303.399 69.7619 303.233 69.8304 303.111 69.9525C302.989 70.0745 302.921 70.2401 302.921 70.4127V71.0635C302.921 71.4087 302.784 71.7397 302.54 71.9838C302.295 72.2279 301.964 72.3651 301.619 72.3651H299.667V74.3174H300.318C300.835 74.3174 301.332 74.5231 301.698 74.8893C302.064 75.2554 302.27 75.752 302.27 76.2698C302.27 76.7876 302.064 77.2842 301.698 77.6504C301.332 78.0165 300.835 78.2222 300.318 78.2222H299.667V80.1746H301.619V79.5238C301.619 79.006 301.825 78.5094 302.191 78.1432C302.557 77.7771 303.054 77.5714 303.572 77.5714C304.089 77.5714 304.586 77.7771 304.952 78.1432C305.318 78.5094 305.524 79.006 305.524 79.5238V80.1746H307.476V78.2222C307.476 77.877 307.613 77.5459 307.858 77.3018C308.102 77.0577 308.433 76.9206 308.778 76.9206H309.429C309.601 76.9206 309.767 76.852 309.889 76.73C310.011 76.608 310.08 76.4424 310.08 76.2698C310.08 76.0972 310.011 75.9317 309.889 75.8096C309.767 75.6876 309.601 75.619 309.429 75.619H308.778C308.433 75.619 308.102 75.4819 307.858 75.2378C307.613 74.9937 307.476 74.6626 307.476 74.3174V72.3651H305.524C305.179 72.3651 304.848 72.2279 304.604 71.9838C304.36 71.7397 304.222 71.4087 304.222 71.0635V70.4127C304.222 70.2401 304.154 70.0745 304.032 69.9525C303.91 69.8304 303.744 69.7619 303.572 69.7619ZM302.191 69.0321C302.557 68.666 303.054 68.4603 303.572 68.4603C304.089 68.4603 304.586 68.666 304.952 69.0321C305.318 69.3983 305.524 69.8949 305.524 70.4127V71.0635H307.476C307.822 71.0635 308.153 71.2006 308.397 71.4447C308.641 71.6888 308.778 72.0199 308.778 72.3651V74.3174H309.429C309.947 74.3174 310.443 74.5231 310.809 74.8893C311.175 75.2554 311.381 75.752 311.381 76.2698C311.381 76.7876 311.175 77.2842 310.809 77.6504C310.443 78.0165 309.947 78.2222 309.429 78.2222H308.778L308.778 80.1746C308.778 80.5198 308.641 80.8508 308.397 81.0949C308.153 81.339 307.822 81.4762 307.476 81.4762H305.524C305.179 81.4762 304.848 81.339 304.604 81.0949C304.36 80.8508 304.222 80.5198 304.222 80.1746V79.5238C304.222 79.3512 304.154 79.1857 304.032 79.0636C303.91 78.9416 303.744 78.873 303.572 78.873C303.399 78.873 303.233 78.9416 303.111 79.0636C302.989 79.1857 302.921 79.3512 302.921 79.5238V80.1746C302.921 80.5198 302.784 80.8508 302.54 81.0949C302.295 81.339 301.964 81.4762 301.619 81.4762H299.667C299.322 81.4762 298.991 81.339 298.746 81.0949C298.502 80.8508 298.365 80.5198 298.365 80.1746V78.2222C298.365 77.877 298.502 77.5459 298.746 77.3018C298.991 77.0577 299.322 76.9206 299.667 76.9206H300.318C300.49 76.9206 300.656 76.852 300.778 76.73C300.9 76.608 300.968 76.4424 300.968 76.2698C300.968 76.0972 300.9 75.9317 300.778 75.8096C300.656 75.6876 300.49 75.619 300.318 75.619H299.667C299.322 75.619 298.991 75.4819 298.746 75.2378C298.502 74.9937 298.365 74.6626 298.365 74.3174V72.3651C298.365 72.0199 298.502 71.6888 298.746 71.4447C298.991 71.2006 299.322 71.0635 299.667 71.0635H301.619V70.4127C301.619 69.8949 301.825 69.3983 302.191 69.0321Z" fill="#00F58C"/>
<circle cx="334.159" cy="75.619" r="9.7619" fill="#232323"/>
<path d="M331.982 79.5555V71.5898H336.867V72.5855H333.095V74.9987H336.586V75.9944H333.095V79.5555H331.982Z" fill="white"/>
<path fill-rule="evenodd" clip-rule="evenodd" d="M360.649 74.7754C360.873 74.5516 361.176 74.4259 361.492 74.4259C361.809 74.4259 362.112 74.5516 362.336 74.7754C362.56 74.9991 362.686 75.3026 362.686 75.6191C362.686 75.9355 362.56 76.239 362.336 76.4627C362.112 76.6865 361.809 76.8122 361.492 76.8122C361.176 76.8122 360.873 76.6865 360.649 76.4627C360.425 76.239 360.299 75.9355 360.299 75.6191C360.299 75.3026 360.425 74.9991 360.649 74.7754Z" fill="#A0A0A0"/>
<path fill-rule="evenodd" clip-rule="evenodd" d="M360.649 78.9513C360.873 78.7276 361.176 78.6019 361.492 78.6019C361.809 78.6019 362.112 78.7276 362.336 78.9513C362.56 79.1751 362.686 79.4786 362.686 79.795C362.686 80.1114 362.56 80.4149 362.336 80.6387C362.112 80.8624 361.809 80.9881 361.492 80.9881C361.176 80.9881 360.873 80.8624 360.649 80.6387C360.425 80.4149 360.299 80.1114 360.299 79.795C360.299 79.4786 360.425 79.1751 360.649 78.9513Z" fill="#A0A0A0"/>
<path fill-rule="evenodd" clip-rule="evenodd" d="M360.649 70.5995C360.873 70.3757 361.176 70.25 361.492 70.25C361.809 70.25 362.112 70.3757 362.336 70.5995C362.56 70.8232 362.686 71.1267 362.686 71.4431C362.686 71.7596 362.56 72.063 362.336 72.2868C362.112 72.5105 361.809 72.6362 361.492 72.6362C361.176 72.6362 360.873 72.5105 360.649 72.2868C360.425 72.063 360.299 71.7596 360.299 71.4431C360.299 71.1267 360.425 70.8232 360.649 70.5995Z" fill="#A0A0A0"/>
</svg>
