<svg width="397" height="86" viewBox="0 0 397 86" fill="none" xmlns="http://www.w3.org/2000/svg">
<path d="M0 0H388.841C393.347 0 397 3.65286 397 8.1589V30.2974H0V0Z" fill="#3E3E3E"/>
<rect y="30.2974" width="397" height="55.3711" fill="#EDEDED"/>
<path d="M0 43.879L317.6 43.879C325.678 43.879 332.226 50.4274 332.226 58.5053V58.5053C332.226 66.5832 325.678 73.1316 317.6 73.1316H0V43.879Z" fill="white"/>
<g clip-path="url(#clip0_1463_17247)">
<path fill-rule="evenodd" clip-rule="evenodd" d="M312.895 51.8464C313.143 51.8464 313.37 51.9875 313.48 52.2104L315.343 55.9853L319.509 56.589C319.755 56.6247 319.959 56.7971 320.036 57.0336C320.113 57.2701 320.049 57.5297 319.871 57.7032L316.852 60.6415L317.564 64.7906C317.606 65.0357 317.505 65.2834 317.304 65.4294C317.102 65.5755 316.836 65.5946 316.616 65.4787L312.899 63.52L309.173 65.479C308.953 65.5946 308.686 65.5754 308.485 65.4293C308.284 65.2832 308.184 65.0356 308.226 64.7906L308.937 60.6415L305.919 57.7032C305.741 57.5297 305.676 57.2701 305.753 57.0336C305.83 56.7971 306.034 56.6247 306.281 56.589L310.446 55.9853L312.309 52.2104C312.419 51.9875 312.646 51.8464 312.895 51.8464ZM312.895 53.9747L311.465 56.8713C311.37 57.0641 311.186 57.1977 310.973 57.2285L307.779 57.6914L310.094 59.9453C310.249 60.0953 310.319 60.3116 310.283 60.5236L309.736 63.7073L312.595 62.2042C312.786 62.1041 313.013 62.1042 313.204 62.2045L316.053 63.7058L315.507 60.5236C315.47 60.3116 315.541 60.0953 315.695 59.9453L318.01 57.6914L314.816 57.2285C314.603 57.1977 314.419 57.0641 314.324 56.8713L312.895 53.9747Z" fill="#A0A0A0"/>
</g>
<path fill-rule="evenodd" clip-rule="evenodd" d="M376.784 58.2706C377.017 58.0369 377.334 57.9055 377.665 57.9055C377.996 57.9055 378.313 58.0369 378.546 58.2706C378.78 58.5044 378.911 58.8214 378.911 59.152C378.911 59.4826 378.78 59.7997 378.546 60.0334C378.313 60.2672 377.996 60.3985 377.665 60.3985C377.334 60.3985 377.017 60.2672 376.784 60.0334C376.55 59.7997 376.418 59.4826 376.418 59.152C376.418 58.8214 376.55 58.5044 376.784 58.2706Z" fill="#A0A0A0"/>
<path fill-rule="evenodd" clip-rule="evenodd" d="M376.784 62.6334C377.017 62.3996 377.334 62.2683 377.665 62.2683C377.996 62.2683 378.313 62.3996 378.546 62.6334C378.78 62.8671 378.911 63.1842 378.911 63.5148C378.911 63.8454 378.78 64.1624 378.546 64.3962C378.313 64.6299 377.996 64.7613 377.665 64.7613C377.334 64.7613 377.017 64.6299 376.784 64.3962C376.55 64.1624 376.418 63.8454 376.418 63.5148C376.418 63.1842 376.55 62.8671 376.784 62.6334Z" fill="#A0A0A0"/>
<path fill-rule="evenodd" clip-rule="evenodd" d="M376.784 53.9079C377.017 53.6741 377.334 53.5428 377.665 53.5428C377.996 53.5428 378.313 53.6741 378.546 53.9079C378.78 54.1416 378.911 54.4587 378.911 54.7893C378.911 55.1199 378.78 55.4369 378.546 55.6707C378.313 55.9045 377.996 56.0358 377.665 56.0358C377.334 56.0358 377.017 55.9045 376.784 55.6707C376.55 55.4369 376.418 55.1199 376.418 54.7893C376.418 54.4587 376.55 54.1416 376.784 53.9079Z" fill="#A0A0A0"/>
<path d="M360.826 57.9829H359.651V54.8487C359.651 54.4331 359.486 54.0345 359.192 53.7406C358.898 53.4467 358.499 53.2816 358.084 53.2816H354.95V52.1063C354.95 51.5867 354.743 51.0885 354.376 50.7211C354.009 50.3538 353.51 50.1474 352.991 50.1474C352.471 50.1474 351.973 50.3538 351.606 50.7211C351.238 51.0885 351.032 51.5867 351.032 52.1063V53.2816H347.898C347.482 53.2816 347.083 53.4467 346.79 53.7406C346.496 54.0345 346.331 54.4331 346.331 54.8487V57.8262H347.506C348.681 57.8262 349.621 58.7664 349.621 59.9418C349.621 61.1171 348.681 62.0574 347.506 62.0574H346.331V65.0349C346.331 65.4505 346.496 65.8491 346.79 66.143C347.083 66.4369 347.482 66.602 347.898 66.602H350.875V65.4266C350.875 64.2513 351.815 63.3111 352.991 63.3111C354.166 63.3111 355.106 64.2513 355.106 65.4266V66.602H358.084C358.499 66.602 358.898 66.4369 359.192 66.143C359.486 65.8491 359.651 65.4505 359.651 65.0349V61.9007H360.826C361.346 61.9007 361.844 61.6943 362.211 61.3269C362.579 60.9596 362.785 60.4613 362.785 59.9418C362.785 59.4222 362.579 58.924 362.211 58.5566C361.844 58.1893 361.346 57.9829 360.826 57.9829Z" fill="#505050"/>
<path d="M365.524 65.6477C365.281 65.7385 365.066 65.872 364.884 66.0365C364.371 65.3239 363.426 65.0102 362.565 65.3316C362.086 65.5103 361.716 65.8541 361.496 66.2745C361.054 66.1013 360.55 66.0838 360.071 66.2625C359.852 66.344 359.657 66.46 359.487 66.602L358.734 64.5832C358.349 63.5518 357.197 63.0259 356.165 63.4109C355.134 63.7958 354.608 64.9481 354.993 65.9794L357.046 71.4812C356.633 71.2926 356.294 71.1378 356.294 71.1378C355.344 70.7044 354.21 71.0827 353.713 71.9971C353.212 72.9124 353.508 74.071 354.388 74.6348C354.398 74.6412 354.408 74.6473 354.418 74.6532L358.428 76.9301C358.863 77.1773 359.381 77.238 359.838 77.2915C360.17 77.3304 360.672 77.3893 360.724 77.5265L361.391 79.3137C361.775 80.345 362.928 80.8709 363.959 80.486L368.947 78.6243C369.978 78.2393 370.504 77.0871 370.119 76.0557L369.638 74.7672C369.546 74.5206 369.672 74.135 369.805 73.7269C369.995 73.1474 370.209 72.4907 369.954 71.8079L368.093 66.8201C367.708 65.7887 366.556 65.2628 365.524 65.6477Z" fill="white"/>
<path d="M365.524 65.6477C365.281 65.7385 365.066 65.872 364.884 66.0365C364.371 65.3239 363.426 65.0102 362.565 65.3316C362.086 65.5103 361.716 65.8541 361.496 66.2745C361.054 66.1013 360.55 66.0838 360.071 66.2625C359.852 66.344 359.657 66.46 359.487 66.602L358.734 64.5832C358.349 63.5518 357.197 63.0259 356.165 63.4109C355.134 63.7958 354.608 64.9481 354.993 65.9794L357.046 71.4812C356.633 71.2926 356.294 71.1378 356.294 71.1378C355.344 70.7044 354.21 71.0827 353.713 71.9971C353.212 72.9124 353.508 74.071 354.388 74.6348C354.398 74.6412 354.408 74.6473 354.418 74.6532L358.428 76.9301C358.863 77.1773 359.381 77.238 359.838 77.2915C360.17 77.3304 360.672 77.3893 360.724 77.5265L361.391 79.3137C361.775 80.345 362.928 80.8709 363.959 80.486L368.947 78.6243C369.978 78.2393 370.504 77.0871 370.119 76.0557L369.638 74.7672C369.546 74.5206 369.672 74.135 369.805 73.7269C369.995 73.1474 370.209 72.4907 369.954 71.8079L368.093 66.8201C367.708 65.7887 366.556 65.2628 365.524 65.6477ZM368.54 73.3136C368.351 73.8931 368.136 74.5498 368.391 75.2326L368.872 76.5211C369.001 76.8649 368.825 77.249 368.482 77.3773L363.494 79.239C363.15 79.3673 362.766 79.192 362.637 78.8482L361.97 77.0611C361.635 76.162 360.686 76.0507 359.992 75.9695C359.645 75.9288 359.286 75.8867 359.085 75.7726L355.094 73.506C354.81 73.3153 354.716 72.9363 354.881 72.6347C355.047 72.3298 355.425 72.2042 355.741 72.3486C355.741 72.3486 357.816 73.2955 357.956 73.3592C358.493 73.6036 359.062 73.0757 358.855 72.5208L356.24 65.514C356.112 65.1703 356.287 64.7862 356.631 64.6578C356.974 64.5295 357.358 64.7048 357.487 65.0486L359.364 70.078C359.493 70.4223 359.876 70.5973 360.22 70.4688C360.565 70.3403 360.739 69.9569 360.611 69.6126L360.146 68.3656C360.017 68.0218 360.193 67.6378 360.536 67.5094C360.88 67.3811 361.264 67.5564 361.392 67.9002L361.858 69.1472C361.986 69.4915 362.37 69.6665 362.714 69.5379C363.058 69.4094 363.233 69.0261 363.105 68.6817L362.639 67.4348C362.511 67.091 362.686 66.7069 363.03 66.5786C363.374 66.4503 363.758 66.6256 363.886 66.9694L364.352 68.2163C364.48 68.5607 364.864 68.7356 365.208 68.6071C365.552 68.4786 365.727 68.0952 365.599 67.7509C365.47 67.4071 365.646 67.023 365.99 66.8947C366.333 66.7664 366.717 66.9417 366.846 67.2855L368.707 72.2733L368.707 72.2733C368.8 72.5199 368.674 72.9055 368.54 73.3136Z" fill="#161616"/>
<defs>
<clipPath id="clip0_1463_17247">
<rect width="15.6711" height="15.6711" fill="white" transform="translate(305.063 51.1921)"/>
</clipPath>
</defs>
</svg>
