<svg width="129" height="116" viewBox="0 0 129 116" fill="none" xmlns="http://www.w3.org/2000/svg">
<g clip-path="url(#clip0_0_3)">
<path fill-rule="evenodd" clip-rule="evenodd" d="M98.4 35.8H30.4572V80.3143H48.0286V74.1041C48.0286 67.8296 53.2061 62.7428 59.5968 62.7428H69.258C75.6467 62.7428 80.8267 67.8296 80.8267 74.1041L80.8283 80.3143H98.4V35.8ZM64.4286 59.2286C68.9574 59.2286 72.6286 55.5567 72.6286 51.0276C72.6286 46.4984 68.9574 42.8286 64.4286 42.8286C59.8998 42.8286 56.2286 46.4983 56.2286 51.0276C56.2286 55.557 59.8998 59.2286 64.4286 59.2286Z" fill="url(#paint0_linear_0_3)"/>
<path d="M19.3286 60.4C19.3286 61.3705 20.1153 62.1572 21.0857 62.1572C22.0561 62.1572 22.8428 61.3705 22.8428 60.4H19.3286ZM21.0857 26.4286V24.6714C20.1153 24.6714 19.3286 25.4581 19.3286 26.4286H21.0857ZM77.3143 26.4286V28.1857C78.2847 28.1857 79.0714 27.399 79.0714 26.4286H77.3143ZM79.0714 19.9857C79.0714 19.0153 78.2847 18.2286 77.3143 18.2286C76.3438 18.2286 75.5571 19.0153 75.5571 19.9857H79.0714ZM22.8428 60.4V26.4286H19.3286V60.4H22.8428ZM21.0857 28.1857H77.3143V24.6714H21.0857V28.1857ZM79.0714 26.4286V19.9857H75.5571V26.4286H79.0714Z" fill="#ECEDEE"/>
<path d="M109.529 55.7143C109.529 54.7438 108.742 53.9571 107.771 53.9571C106.801 53.9571 106.014 54.7438 106.014 55.7143H109.529ZM107.771 89.6857V91.4428C108.742 91.4428 109.529 90.6561 109.529 89.6857H107.771ZM51.5429 89.6857V87.9285C50.5725 87.9285 49.7858 88.7152 49.7858 89.6857H51.5429ZM49.7858 96.1285C49.7858 97.099 50.5725 97.8857 51.5429 97.8857C52.5134 97.8857 53.3001 97.099 53.3001 96.1285H49.7858ZM106.014 55.7143V89.6857H109.529V55.7143H106.014ZM107.771 87.9285H51.5429V91.4428H107.771V87.9285ZM49.7858 89.6857V96.1285H53.3001V89.6857H49.7858Z" fill="#ECEDEE"/>
<path fill-rule="evenodd" clip-rule="evenodd" d="M77.3144 19.4C74.0796 19.4 71.4572 16.7777 71.4572 13.5429C71.4572 10.3081 74.0796 7.68573 77.3144 7.68573C80.5492 7.68573 83.1715 10.3081 83.1715 13.5429C83.1715 16.7777 80.5492 19.4 77.3144 19.4Z" stroke="#ECEDEE" stroke-width="3.51429"/>
<path fill-rule="evenodd" clip-rule="evenodd" d="M51.5429 108.429C48.3081 108.429 45.6857 105.806 45.6857 102.571C45.6857 99.3366 48.3081 96.7143 51.5429 96.7143C54.7777 96.7143 57.4 99.3366 57.4 102.571C57.4 105.806 54.7777 108.429 51.5429 108.429Z" stroke="#ECEDEE" stroke-width="3.51429"/>
<path d="M9.37146 94.3715V113.114H28.1143" stroke="#4FF58C" stroke-width="4.68571"/>
<path d="M119.486 94.3715V113.114H100.743" stroke="#4FF58C" stroke-width="4.68571"/>
<path d="M9.37146 21.7429V3H28.1143" stroke="#4FF58C" stroke-width="4.68571"/>
<path d="M119.486 21.7429V3H100.743" stroke="#4FF58C" stroke-width="4.68571"/>
<path opacity="0.1" d="M69.1143 31.1143V43.2748H81.2748V31.1143H69.1143Z" fill="#4FF58C"/>
<path opacity="0.4" d="M84.7892 31.1143V43.2748H96.9497V31.1143H84.7892Z" fill="#4FF58C"/>
<path opacity="0.7" d="M100.464 31.1143V43.2748H112.624V31.1143H100.464Z" fill="#4FF58C"/>
<path d="M116.139 31.1143V43.2748H128.299V31.1143H116.139Z" fill="#4FF58C"/>
<path opacity="0.1" d="M59.1852 85.4462V73.2857H47.0247V85.4462H59.1852Z" fill="#4FF58C"/>
<path opacity="0.4" d="M43.5104 85.4462V73.2857H31.3499V85.4462H43.5104Z" fill="#4FF58C"/>
<path opacity="0.7" d="M27.8354 85.4462V73.2857H15.6749V85.4462H27.8354Z" fill="#4FF58C"/>
<path d="M12.1606 85.4462V73.2857H9.91821e-05V85.4462H12.1606Z" fill="#4FF58C"/>
</g>
<defs>
<linearGradient id="paint0_linear_0_3" x1="64.4286" y1="35.8" x2="64.4286" y2="80.3143" gradientUnits="userSpaceOnUse">
<stop stop-color="#4FF58C"/>
<stop offset="1" stop-color="#25D0AB" stop-opacity="0"/>
</linearGradient>
<clipPath id="clip0_0_3">
<rect width="129" height="116" fill="white"/>
</clipPath>
</defs>
</svg>
