<svg width="116" height="95" viewBox="0 0 116 95" fill="none" xmlns="http://www.w3.org/2000/svg">
<g clip-path="url(#clip0_0_49)">
<path d="M20 82.8835V19.9708H99.6893V82.8835" stroke="url(#paint0_linear_0_49)" stroke-width="4"/>
<path d="M28.9126 31.5049C30.3603 31.5049 31.5339 30.3312 31.5339 28.8835C31.5339 27.4358 30.3603 26.2621 28.9126 26.2621C27.4649 26.2621 26.2912 27.4358 26.2912 28.8835C26.2912 30.3312 27.4649 31.5049 28.9126 31.5049Z" fill="#4FF58C"/>
<path d="M36.2525 31.5049C37.7002 31.5049 38.8739 30.3312 38.8739 28.8835C38.8739 27.4358 37.7002 26.2621 36.2525 26.2621C34.8048 26.2621 33.6311 27.4358 33.6311 28.8835C33.6311 30.3312 34.8048 31.5049 36.2525 31.5049Z" fill="#4FF58C"/>
<path d="M43.5923 31.5049C45.04 31.5049 46.2137 30.3312 46.2137 28.8835C46.2137 27.4358 45.04 26.2621 43.5923 26.2621C42.1446 26.2621 40.9709 27.4358 40.9709 28.8835C40.9709 30.3312 42.1446 31.5049 43.5923 31.5049Z" fill="#4FF58C"/>
<path d="M28.3884 35.699H61.9418V73.4466H28.3884V35.699Z" fill="url(#paint1_linear_0_49)"/>
<path d="M67 57H91V73H67V57Z" fill="#4FF58C"/>
<path d="M67 36H91V52H67V36Z" fill="#4FF58C"/>
<path d="M17.7282 93.369C26.4146 93.369 33.4564 86.3272 33.4564 77.6408C33.4564 68.9544 26.4146 61.9126 17.7282 61.9126C9.04176 61.9126 2 68.9544 2 77.6408C2 86.3272 9.04176 93.369 17.7282 93.369Z" stroke="white" stroke-width="3"/>
<path d="M71.0096 7.24268H16.4854" stroke="white" stroke-width="3" stroke-linecap="round" stroke-linejoin="round"/>
<path fill-rule="evenodd" clip-rule="evenodd" d="M11 12C13.7614 12 16 9.76142 16 7C16 4.23858 13.7614 2 11 2C8.23858 2 6 4.23858 6 7C6 9.76142 8.23858 12 11 12Z" stroke="white" stroke-width="3"/>
<path d="M48.9904 88.2427H103.515" stroke="white" stroke-width="3" stroke-linecap="round" stroke-linejoin="round"/>
<path fill-rule="evenodd" clip-rule="evenodd" d="M109 93C106.239 93 104 90.7614 104 88C104 85.2386 106.239 83 109 83C111.761 83 114 85.2386 114 88C114 90.7614 111.761 93 109 93Z" stroke="white" stroke-width="3"/>
<path opacity="0.1" d="M94.8849 53.3359H84V42.451H94.8849V53.3359Z" fill="#4FF58C"/>
<path opacity="0.1" d="M111.132 59.6272H100.247V48.7423H111.132V59.6272Z" fill="#4FF58C"/>
<path opacity="0.4" d="M94.8849 39.1856H84V28.3007H94.8849V39.1856Z" fill="#4FF58C"/>
<path opacity="0.4" d="M111.132 45.4769H100.247V34.592H111.132V45.4769Z" fill="#4FF58C"/>
<path opacity="0.7" d="M94.8849 25.0352H84V14.1503H94.8849V25.0352Z" fill="#4FF58C"/>
<path opacity="0.7" d="M111.132 31.3265H100.247V20.4416H111.132V31.3265Z" fill="#4FF58C"/>
<path d="M94.8849 10.8849H84V2.86102e-06H94.8849V10.8849Z" fill="#4FF58C"/>
<path d="M111.132 17.1761H100.247V6.2912H111.132V17.1761Z" fill="#4FF58C"/>
<path fill-rule="evenodd" clip-rule="evenodd" d="M24.795 71.205C25.0683 71.4784 25.0683 71.9216 24.795 72.195L12.195 84.795C11.9216 85.0683 11.4784 85.0683 11.205 84.795C10.9317 84.5216 10.9317 84.0784 11.205 83.805L23.805 71.205C24.0784 70.9317 24.5216 70.9317 24.795 71.205Z" fill="#4FF58C"/>
<path fill-rule="evenodd" clip-rule="evenodd" d="M11.205 71.205C11.4784 70.9317 11.9216 70.9317 12.195 71.205L24.795 83.805C25.0683 84.0784 25.0683 84.5216 24.795 84.795C24.5216 85.0683 24.0784 85.0683 23.805 84.795L11.205 72.195C10.9317 71.9216 10.9317 71.4784 11.205 71.205Z" fill="#4FF58C"/>
</g>
<defs>
<linearGradient id="paint0_linear_0_49" x1="59.8447" y1="19.9708" x2="59.8447" y2="82.8835" gradientUnits="userSpaceOnUse">
<stop stop-color="#4FF58C"/>
<stop offset="1" stop-color="#25D0AB" stop-opacity="0"/>
</linearGradient>
<linearGradient id="paint1_linear_0_49" x1="45.1651" y1="35.699" x2="45.1651" y2="73.4466" gradientUnits="userSpaceOnUse">
<stop stop-color="#4FF58C"/>
<stop offset="1" stop-color="#25D0AB" stop-opacity="0"/>
</linearGradient>
<clipPath id="clip0_0_49">
<rect width="116" height="95" fill="white"/>
</clipPath>
</defs>
</svg>
