<?xml version="1.0" standalone="no"?>
<!DOCTYPE svg PUBLIC "-//W3C//DTD SVG 20010904//EN"
 "http://www.w3.org/TR/2001/REC-SVG-20010904/DTD/svg10.dtd">
<svg version="1.0" xmlns="http://www.w3.org/2000/svg"
 width="688.000000pt" height="688.000000pt" viewBox="0 0 688.000000 688.000000"
 preserveAspectRatio="xMidYMid meet">
<metadata>
Created by potrace 1.14, written by Peter Selinger 2001-2017
</metadata>
<g transform="translate(0.000000,688.000000) scale(0.100000,-0.100000)"
fill="#000000" stroke="none">
<path d="M345 6866 c-102 -25 -209 -102 -271 -196 -26 -40 -39 -69 -62 -135
-4 -11 -8 -1486 -9 -3278 l-3 -3257 2892 0 c2868 0 2894 1 2971 21 81 20 159
55 237 103 25 16 180 164 346 330 l301 301 50 105 c28 58 54 116 56 130 3 14
9 36 14 50 4 14 9 1333 10 2933 l3 2907 -3242 -1 c-2509 -1 -3254 -3 -3293
-13z m4135 -876 c0 -3 -510 -514 -1132 -1137 -822 -820 -1145 -1137 -1178
-1154 -100 -50 -247 -25 -330 56 -39 38 -45 49 -135 240 -32 66 -77 163 -102
215 -25 52 -62 131 -83 175 -38 82 -84 179 -196 414 -35 73 -64 135 -64 136 0
2 -43 91 -95 200 -52 108 -95 198 -95 200 0 2 -39 83 -87 181 -83 172 -87 182
-87 250 -1 44 5 82 14 100 22 45 85 101 130 116 33 11 348 13 1740 13 935 0
1700 -2 1700 -5z m1510 3 c0 -2 -501 -504 -1113 -1116 -1167 -1165 -1132
-1133 -1267 -1183 -38 -15 -99 -18 -410 -21 -201 -3 -387 -3 -415 -1 l-50 3
1100 1100 c605 605 1122 1115 1149 1132 59 40 141 71 209 81 45 6 797 11 797
5z m-3907 -3911 c-654 -654 -1190 -1185 -1193 -1181 -3 4 -5 504 -5 1111 l0
1103 28 47 c29 49 70 85 115 98 15 5 525 9 1135 9 l1107 1 -1187 -1188z"/>
</g>
</svg>
